<?xml version="1.0" encoding="utf-8"?>
<!-- Generator: Moho 12.5 build 22438 -->
<!DOCTYPE svg PUBLIC "-//W3C//DTD SVG 1.1//EN" "http://www.w3.org/Graphics/SVG/1.1/DTD/svg11.dtd">
<svg version="1.1" id="Frame_0" xmlns="http://www.w3.org/2000/svg" xmlns:xlink="http://www.w3.org/1999/xlink" width="1920px" height="1080px">
<g id="Layer_3">
<g id="Layer_1">
<path fill="#f7bc09" fill-rule="evenodd" stroke="#000000" stroke-width="6" stroke-opacity="0.000000" stroke-linecap="round" stroke-linejoin="round" d="M 1502.753 348.308 C 1523.119 364.026 1549.226 387.047 1564.723 407.583 C 1578.219 425.467 1592.822 452.215 1599.852 473.489 C 1605.264 489.867 1609.049 513.028 1608.860 530.276 C 1608.700 544.804 1604.884 564.128 1600.495 577.978 C 1595.702 593.098 1586.553 612.494 1577.848 625.753 C 1563.912 646.978 1540.251 671.845 1521.228 688.664 C 1497.940 709.253 1463.300 732.717 1436.019 747.617 C 1402.035 766.176 1353.397 784.520 1316.628 796.661 C 1282.067 808.073 1234.797 819.729 1199.046 826.551 C 1146.276 836.619 1074.992 846.014 1021.331 848.575 C 970.241 851.013 901.852 848.421 850.901 843.937 C 790.292 838.604 709.250 828.912 650.382 813.536 C 612.066 803.529 562.155 785.198 526.468 768.030 C 488.123 749.582 438.272 721.207 405.270 694.347 C 387.479 679.867 365.596 657.910 352.246 639.257 C 338.587 620.173 322.073 592.487 316.437 569.705 C 310.886 547.265 310.917 515.281 315.643 492.652 C 320.979 467.101 336.534 434.710 351.713 413.475 C 371.370 385.975 406.953 356.659 434.408 336.938 C 463.407 316.108 506.332 294.560 538.986 280.119 C 575.474 263.982 626.128 246.960 664.661 236.616 C 699.112 227.368 745.924 217.924 781.359 213.829 C 874.636 203.049 1000.754 198.611 1094.277 206.988 C 1164.425 213.271 1260.521 223.144 1324.621 252.322 C 1330.400 254.952 1336.565 261.170 1342.175 264.142 C 1351.984 269.338 1366.493 273.093 1376.681 277.499 C 1392.171 284.198 1412.133 294.641 1427.326 301.987 C 1427.326 301.987 1427.326 301.987 1427.326 301.987 C 1426.999 301.980 1481.731 332.084 1502.753 348.308 Z"/>
</g>
<g id="Layer_2">
<path fill="#3828d0" fill-rule="evenodd" stroke="#000000" stroke-width="6" stroke-opacity="0.000000" stroke-linecap="round" stroke-linejoin="round" d="M 1377.192 291.745 C 1398.378 300.693 1425.441 315.463 1444.825 327.839 C 1463.239 339.596 1487.102 356.658 1502.998 371.644 C 1516.961 384.808 1533.863 404.340 1544.557 420.275 C 1555.108 435.996 1568.319 458.160 1573.438 476.388 C 1577.871 492.171 1579.030 514.526 1577.699 530.865 C 1576.176 549.581 1570.214 574.459 1562.519 591.587 C 1554.935 608.469 1539.778 628.482 1527.737 642.536 C 1513.509 659.142 1491.817 679.006 1474.365 692.183 C 1451.177 709.692 1417.296 729.044 1391.205 741.831 C 1356.326 758.927 1307.736 777.701 1270.409 788.447 C 1210.253 805.764 1127.562 820.510 1065.255 826.547 C 1012.962 831.614 942.557 832.336 890.142 828.745 C 819.520 823.907 724.933 812.334 656.987 792.480 C 602.708 776.620 531.893 747.673 484.007 717.597 C 453.017 698.133 414.092 667.149 390.747 638.967 C 373.999 618.749 354.295 588.422 346.900 563.231 C 340.961 543.005 339.315 513.848 342.913 493.077 C 347.138 468.694 361.351 437.574 375.600 417.341 C 397.636 386.048 439.125 354.005 470.468 332.039 C 493.844 315.656 527.976 298.160 554.104 286.664 C 586.054 272.605 630.686 258.758 664.235 249.119 C 688.348 242.191 720.849 233.931 745.582 229.721 C 785.928 222.854 840.461 217.797 881.369 216.581 C 964.262 214.115 1075.639 216.219 1157.500 229.491 C 1211.738 238.285 1281.205 263.170 1334.222 277.604 C 1334.222 277.604 1334.222 277.604 1334.222 277.604 C 1333.656 277.115 1364.690 286.465 1377.192 291.745 Z"/>
<path fill="#887df0" fill-rule="evenodd" stroke="none" d="M 1547.130 563.128 C 1546.734 572.921 1544.483 585.843 1543.349 595.577 C 1543.349 595.572 1543.888 561.103 1542.404 546.431 C 1540.983 532.377 1537.988 513.640 1533.898 500.119 C 1529.896 486.891 1522.203 469.997 1515.731 457.786 C 1509.286 445.626 1499.514 429.962 1491.003 419.148 C 1480.487 405.788 1464.466 389.530 1451.612 378.401 C 1439.184 367.640 1421.040 355.170 1407.188 346.317 C 1397.577 340.174 1384.190 332.908 1374.115 327.560 C 1361.714 320.977 1344.745 313.048 1332.158 306.828 C 1332.159 306.827 1337.225 297.308 1339.397 293.228 C 1351.535 298.988 1368.008 306.096 1379.858 312.427 C 1394.517 320.259 1413.820 331.294 1427.362 340.929 C 1440.346 350.167 1456.933 363.640 1468.135 374.973 C 1481.706 388.703 1498.123 408.791 1508.616 424.994 C 1518.338 440.005 1529.803 461.225 1535.649 478.127 C 1540.731 492.821 1544.131 513.482 1545.902 528.929 C 1547.072 539.128 1547.544 552.870 1547.130 563.128 M 1339.397 293.228 C 1339.397 293.228 1339.397 293.228 1339.397 293.228 Z"/>
<path fill="none" stroke="#000000" stroke-width="6" stroke-opacity="0.000000" stroke-linecap="round" stroke-linejoin="round" d="M 1543.349 595.577 C 1543.349 595.577 1543.349 595.577 1543.349 595.577 C 1544.483 585.843 1546.734 572.921 1547.130 563.128 C 1547.544 552.870 1547.072 539.128 1545.902 528.929 C 1544.131 513.482 1540.731 492.821 1535.649 478.127 C 1529.803 461.225 1518.338 440.005 1508.616 424.994 C 1498.123 408.791 1481.706 388.703 1468.135 374.973 C 1456.933 363.640 1440.346 350.167 1427.362 340.929 C 1413.820 331.294 1394.517 320.259 1379.858 312.427 C 1368.008 306.096 1351.535 298.988 1339.397 293.228 C 1339.397 293.228 1339.397 293.228 1339.397 293.228 C 1337.225 297.308 1332.159 306.827 1332.158 306.828 C 1332.158 306.828 1332.158 306.828 1332.158 306.828 C 1344.745 313.048 1361.714 320.977 1374.115 327.560 C 1384.190 332.908 1397.577 340.174 1407.188 346.317 C 1421.040 355.170 1439.184 367.640 1451.612 378.401 C 1464.466 389.530 1480.487 405.788 1491.003 419.148 C 1499.514 429.962 1509.286 445.626 1515.731 457.786 C 1522.203 469.997 1529.896 486.891 1533.898 500.119 C 1537.988 513.640 1540.983 532.377 1542.404 546.431 C 1543.888 561.103 1543.349 595.572 1543.349 595.577 "/>
<path fill="#887df0" fill-rule="evenodd" stroke="none" d="M 1495.076 478.979 C 1495.076 478.979 1495.076 478.979 1495.076 478.979 C 1490.848 469.656 1485.905 456.880 1480.984 447.904 C 1474.624 436.303 1465.101 421.327 1456.774 411.047 C 1446.160 397.943 1429.883 382.213 1417.027 371.300 C 1403.106 359.483 1383.151 345.332 1367.523 335.888 C 1356.072 328.967 1339.700 321.724 1327.776 315.653 C 1327.776 315.653 1327.776 315.653 1327.776 315.653 C 1322.898 318.797 1311.517 326.131 1311.516 326.132 C 1321.705 330.577 1335.570 335.913 1345.482 340.947 C 1356.007 346.294 1369.572 354.351 1379.447 360.821 C 1395.334 371.229 1416.156 385.832 1430.396 398.400 C 1442.870 409.410 1458.383 425.454 1468.698 438.509 C 1477.683 449.879 1495.073 478.975 1495.076 478.979 C 1495.076 478.979 1495.076 478.979 1495.076 478.979 Z"/>
<path fill="none" stroke="#000000" stroke-width="6" stroke-opacity="0.000000" stroke-linecap="round" stroke-linejoin="round" d="M 1311.516 326.132 C 1311.516 326.132 1311.516 326.132 1311.516 326.132 C 1311.517 326.131 1322.898 318.797 1327.776 315.653 C 1339.700 321.724 1356.072 328.967 1367.523 335.888 C 1383.151 345.332 1403.106 359.483 1417.027 371.300 C 1429.883 382.213 1446.160 397.943 1456.774 411.047 C 1465.101 421.327 1474.624 436.303 1480.984 447.904 C 1485.905 456.880 1490.848 469.656 1495.076 478.979 C 1495.076 478.979 1495.076 478.979 1495.076 478.979 C 1495.073 478.975 1477.683 449.879 1468.698 438.509 C 1458.383 425.454 1442.870 409.410 1430.396 398.400 C 1416.156 385.832 1395.334 371.229 1379.447 360.821 C 1369.572 354.351 1356.007 346.294 1345.482 340.947 C 1335.570 335.913 1321.705 330.577 1311.516 326.132 M 1327.776 315.653 C 1327.776 315.653 1327.776 315.653 1327.776 315.653 M 1495.076 478.979 C 1495.076 478.979 1495.076 478.979 1495.076 478.979 "/>
<path fill="#887df0" fill-rule="evenodd" stroke="none" d="M 909.509 697.260 C 898.515 694.528 874.092 684.172 874.089 684.170 C 856.071 695.720 814.034 722.667 814.028 722.671 C 820.991 725.882 829.863 731.277 837.238 733.375 C 850.676 737.196 869.627 737.164 883.564 738.143 C 907.431 739.821 939.347 741.245 963.270 740.868 C 998.504 740.313 1045.576 737.776 1080.446 732.693 C 1115.227 727.624 1161.210 717.536 1194.789 707.150 C 1217.021 700.274 1246.477 689.791 1267.000 678.820 C 1291.056 665.962 1322.100 645.846 1341.434 626.606 C 1356.580 611.534 1375.188 588.687 1383.095 568.837 C 1388.956 554.124 1391.844 532.429 1390.871 516.622 C 1390.253 506.572 1385.852 493.613 1382.484 484.125 C 1381.284 480.747 1380.801 474.940 1377.674 473.189 C 1360.074 463.332 1334.553 492.054 1316.073 500.139 C 1312.377 521.160 1312.722 550.841 1303.753 570.209 C 1297.538 583.631 1283.745 598.595 1272.953 608.710 C 1255.842 624.745 1229.254 642.128 1208.272 652.600 C 1178.010 667.704 1134.241 680.612 1101.241 688.021 C 1061.067 697.039 1006.120 704.742 964.950 704.191 C 948.190 703.966 925.776 701.304 909.509 697.260 M 1316.073 500.139 C 1316.073 500.139 1316.073 500.139 1316.073 500.139 Z"/>
<path fill="none" stroke="#000000" stroke-width="6" stroke-opacity="0.000000" stroke-linecap="round" stroke-linejoin="round" d="M 909.509 697.260 C 898.515 694.528 874.092 684.172 874.089 684.170 C 874.089 684.170 874.089 684.170 874.089 684.170 C 856.071 695.720 814.034 722.667 814.028 722.671 C 820.991 725.882 829.863 731.277 837.238 733.375 C 850.676 737.196 869.627 737.164 883.564 738.143 C 907.431 739.821 939.347 741.245 963.270 740.868 C 998.504 740.313 1045.576 737.776 1080.446 732.693 C 1115.227 727.624 1161.210 717.536 1194.789 707.150 C 1217.021 700.274 1246.477 689.791 1267.000 678.820 C 1291.056 665.962 1322.100 645.846 1341.434 626.606 C 1356.580 611.534 1375.188 588.687 1383.095 568.837 C 1388.956 554.124 1391.844 532.429 1390.871 516.622 C 1390.253 506.572 1385.852 493.613 1382.484 484.125 C 1381.284 480.747 1380.801 474.940 1377.674 473.189 C 1360.074 463.332 1334.553 492.054 1316.073 500.139 C 1312.377 521.160 1312.722 550.841 1303.753 570.209 C 1297.538 583.631 1283.745 598.595 1272.953 608.710 C 1255.842 624.745 1229.254 642.128 1208.272 652.600 C 1178.010 667.704 1134.241 680.612 1101.241 688.021 C 1061.067 697.039 1006.120 704.742 964.950 704.191 C 948.190 703.966 925.776 701.304 909.509 697.260 M 1316.073 500.139 C 1316.073 500.139 1316.073 500.139 1316.073 500.139 M 814.028 722.671 C 814.028 722.671 814.028 722.671 814.028 722.671 "/>
<path fill="#887df0" fill-rule="evenodd" stroke="#000000" stroke-width="6" stroke-opacity="0.000000" stroke-linecap="round" stroke-linejoin="round" d="M 552.279 465.082 C 552.279 465.082 552.279 465.082 552.279 465.082 C 546.597 474.236 536.820 485.399 533.339 495.596 C 528.784 508.943 527.421 528.419 529.131 542.418 C 530.831 556.340 537.236 574.545 544.387 586.610 C 557.649 608.984 583.705 633.410 604.362 649.214 C 623.659 663.979 652.949 678.816 675.384 688.146 C 696.964 697.120 727.678 703.613 750.090 710.241 C 750.090 710.241 750.090 710.241 750.090 710.241 C 735.727 669.838 716.578 615.966 702.215 575.562 C 702.215 575.562 702.215 575.562 702.215 575.562 C 657.234 542.418 552.294 465.093 552.279 465.082 C 552.279 465.082 552.279 465.082 552.279 465.082 Z"/>
<path fill="#887df0" fill-rule="evenodd" stroke="#000000" stroke-width="6" stroke-opacity="0.000000" stroke-linecap="round" stroke-linejoin="round" d="M 383.447 488.402 C 384.396 503.952 386.724 524.830 391.226 539.744 C 398.245 562.991 412.464 592.757 426.378 612.660 C 442.855 636.228 470.875 663.359 493.558 681.032 C 518.788 700.690 556.736 721.104 585.721 734.627 C 616.389 748.937 659.333 763.503 691.868 772.818 C 730.905 783.994 784.254 794.004 824.249 801.014 C 852.736 806.007 890.936 811.580 919.718 814.422 C 942.225 816.644 972.398 817.547 994.976 818.886 C 994.976 818.886 994.976 818.886 994.976 818.886 C 970.007 819.269 936.696 821.201 911.746 820.162 C 877.154 818.721 831.101 814.024 796.945 808.363 C 751.177 800.776 690.367 787.846 646.369 773.135 C 611.378 761.435 565.515 742.547 533.646 723.956 C 506.126 707.902 470.893 683.127 448.552 660.412 C 434.462 646.086 418.364 624.203 408.653 606.611 C 398.885 588.917 388.757 563.516 384.256 543.812 C 380.246 526.254 378.773 501.981 379.343 483.980 C 379.705 472.543 382.950 457.526 384.496 446.189 C 384.496 446.189 384.496 446.189 384.496 446.189 C 384.555 446.344 382.676 475.758 383.447 488.402 Z"/>
</g>
<g id="Layer_3">
<g id="Layer_4">
<clipPath id="b108c201-e251-45a8-81a0-80fe18c9a2eb">
<path fill="#b55717" fill-rule="evenodd" stroke="none" d="M 543.238 474.755 C 543.238 474.755 543.238 474.755 543.238 474.755 C 540.962 485.892 536.538 500.545 535.653 511.878 C 534.683 524.309 531.789 542.387 537.649 553.393 C 541.411 560.458 551.913 565.477 558.406 570.158 C 564.523 574.567 573.417 579.361 579.562 583.730 C 595.186 594.837 614.834 611.254 629.459 623.647 C 644.467 636.364 663.454 654.489 678.261 667.438 C 691.836 679.308 709.306 695.987 724.005 706.433 C 735.720 714.759 751.765 725.832 765.250 730.805 C 778.748 735.783 798.107 738.867 812.493 739.053 C 830.526 739.286 854.916 735.895 871.891 729.808 C 879.861 726.950 889.164 720.220 896.545 716.072 C 902.897 712.503 911.130 707.297 917.676 704.097 C 947.193 689.669 988.849 675.606 1019.544 663.890 C 1070.923 644.279 1140.546 621.079 1191.612 600.665 C 1232.384 584.366 1286.368 561.584 1326.007 542.695 C 1336.592 537.651 1351.329 531.788 1360.776 524.841 C 1368.002 519.527 1377.391 511.442 1381.918 503.698 C 1388.820 491.893 1392.200 473.171 1393.194 459.533 C 1394.463 442.130 1395.275 416.892 1386.617 401.743 C 1382.148 393.924 1371.546 386.707 1363.594 382.479 C 1352.756 376.716 1336.140 374.203 1324.128 371.673 C 1302.593 367.137 1273.284 364.470 1251.494 361.383 C 1251.494 361.383 1251.494 361.383 1251.494 361.383 C 1039.017 395.395 543.308 474.743 543.238 474.755 C 543.238 474.755 543.238 474.755 543.238 474.755 Z"/>
</clipPath>
<path fill="#b55717" fill-rule="evenodd" stroke="#000000" stroke-width="6" stroke-opacity="0.000000" stroke-linecap="round" stroke-linejoin="round" d="M 543.238 474.755 C 543.238 474.755 543.238 474.755 543.238 474.755 C 540.962 485.892 536.538 500.545 535.653 511.878 C 534.683 524.309 531.789 542.387 537.649 553.393 C 541.411 560.458 551.913 565.477 558.406 570.158 C 564.523 574.567 573.417 579.361 579.562 583.730 C 595.186 594.837 614.834 611.254 629.459 623.647 C 644.467 636.364 663.454 654.489 678.261 667.438 C 691.836 679.308 709.306 695.987 724.005 706.433 C 735.720 714.759 751.765 725.832 765.250 730.805 C 778.748 735.783 798.107 738.867 812.493 739.053 C 830.526 739.286 854.916 735.895 871.891 729.808 C 879.861 726.950 889.164 720.220 896.545 716.072 C 902.897 712.503 911.130 707.297 917.676 704.097 C 947.193 689.669 988.849 675.606 1019.544 663.890 C 1070.923 644.279 1140.546 621.079 1191.612 600.665 C 1232.384 584.366 1286.368 561.584 1326.007 542.695 C 1336.592 537.651 1351.329 531.788 1360.776 524.841 C 1368.002 519.527 1377.391 511.442 1381.918 503.698 C 1388.820 491.893 1392.200 473.171 1393.194 459.533 C 1394.463 442.130 1395.275 416.892 1386.617 401.743 C 1382.148 393.924 1371.546 386.707 1363.594 382.479 C 1352.756 376.716 1336.140 374.203 1324.128 371.673 C 1302.593 367.137 1273.284 364.470 1251.494 361.383 C 1251.494 361.383 1251.494 361.383 1251.494 361.383 C 1039.017 395.395 543.308 474.743 543.238 474.755 C 543.238 474.755 543.238 474.755 543.238 474.755 Z"/>
</g>
<g id="Layer_2">
<path fill="#eb8924" fill-rule="evenodd" stroke="#000000" stroke-width="6" stroke-opacity="0.000000" stroke-linecap="round" stroke-linejoin="round" d="M 1359.419 377.494 C 1367.011 380.897 1377.165 386.603 1382.320 393.134 C 1384.971 396.493 1387.174 402.043 1387.905 406.259 C 1388.766 411.223 1388.293 418.208 1386.788 423.016 C 1384.879 429.119 1379.751 436.290 1375.617 441.169 C 1366.269 452.201 1350.548 463.932 1338.474 471.889 C 1321.418 483.130 1296.417 494.423 1277.665 502.522 C 1259.894 510.198 1235.292 518.166 1217.040 524.614 C 1192.315 533.350 1159.017 544.047 1134.323 552.871 C 1098.914 565.525 1051.972 583.159 1016.941 596.825 C 994.820 605.455 965.994 618.703 943.569 626.510 C 918.110 635.373 883.827 646.823 857.316 651.714 C 837.170 655.430 809.608 660.135 789.283 657.577 C 776.732 655.998 760.085 650.908 749.219 644.433 C 738.701 638.166 728.285 624.990 719.534 616.428 C 709.954 607.056 698.368 593.315 688.185 584.603 C 673.725 572.233 652.348 558.359 636.424 547.940 C 623.611 539.556 605.795 529.543 592.752 521.521 C 581.054 514.326 563.344 507.260 553.932 497.258 C 549.807 492.875 538.716 483.399 543.688 480.005 C 545.722 478.616 548.996 482.213 551.236 483.240 C 586.941 499.609 632.634 525.414 668.235 542.009 C 695.552 554.743 730.547 578.023 760.433 581.908 C 787.285 585.398 823.931 577.101 849.759 568.972 C 926.343 544.870 1012.222 475.431 1084.383 440.234 C 1139.213 413.489 1215.025 383.711 1271.015 359.487 C 1271.015 359.487 1271.015 359.487 1271.015 359.487 C 1270.894 359.946 1334.722 366.422 1359.419 377.494 Z" clip-path="url(#b108c201-e251-45a8-81a0-80fe18c9a2eb)"/>
</g>
<g id="Layer_3">
<path fill="#d8a055" fill-rule="evenodd" stroke="none" d="M 1331.599 437.845 C 1331.599 437.845 1331.599 437.845 1331.599 437.845 C 1334.569 435.794 1339.602 434.078 1341.501 431.008 C 1343.269 428.150 1343.384 423.280 1343.151 419.927 C 1342.880 416.021 1341.522 410.709 1339.379 407.432 C 1335.716 401.830 1327.829 396.691 1321.933 393.522 C 1312.039 388.204 1297.058 385.129 1286.097 382.677 C 1275.213 380.242 1260.352 378.881 1249.318 377.255 C 1249.318 377.255 1249.318 377.255 1249.318 377.255 C 1245.923 379.235 1238.003 383.855 1238.002 383.856 C 1243.023 385.270 1249.811 386.862 1254.741 388.571 C 1275.722 395.844 1307.488 401.809 1322.640 418.042 C 1327.089 422.808 1331.598 437.843 1331.599 437.845 C 1331.599 437.845 1331.599 437.845 1331.599 437.845 Z" clip-path="url(#b108c201-e251-45a8-81a0-80fe18c9a2eb)"/>
<path fill="none" stroke="#000000" stroke-width="6" stroke-opacity="0.000000" stroke-linecap="round" stroke-linejoin="round" d="M 1238.002 383.856 C 1238.002 383.856 1238.002 383.856 1238.002 383.856 C 1238.003 383.855 1245.923 379.235 1249.318 377.255 C 1260.352 378.881 1275.213 380.242 1286.097 382.677 C 1297.058 385.129 1312.039 388.204 1321.933 393.522 C 1327.829 396.691 1335.716 401.830 1339.379 407.432 C 1341.522 410.709 1342.880 416.021 1343.151 419.927 C 1343.384 423.280 1343.269 428.150 1341.501 431.008 C 1339.602 434.078 1334.569 435.794 1331.599 437.845 C 1331.599 437.845 1331.599 437.845 1331.599 437.845 C 1331.598 437.843 1327.089 422.808 1322.640 418.042 C 1307.488 401.809 1275.722 395.844 1254.741 388.571 C 1249.811 386.862 1243.023 385.270 1238.002 383.856 M 1249.318 377.255 C 1249.318 377.255 1249.318 377.255 1249.318 377.255 M 1331.599 437.845 C 1331.599 437.845 1331.599 437.845 1331.599 437.845 " clip-path="url(#b108c201-e251-45a8-81a0-80fe18c9a2eb)"/>
</g>
<g id="Layer_4">
<path fill="#e9bb66" fill-rule="evenodd" stroke="none" d="M 785.945 630.843 C 773.205 626.301 759.687 613.338 748.433 605.836 C 748.450 605.831 864.131 575.176 910.983 554.733 C 944.580 540.074 985.148 512.099 1017.536 494.933 C 1084.293 459.551 1175.522 416.709 1243.231 383.185 C 1255.030 385.013 1270.916 386.642 1282.560 389.278 C 1294.083 391.888 1309.723 395.294 1320.282 400.595 C 1325.316 403.122 1332.158 406.987 1335.607 411.440 C 1338.309 414.929 1340.587 420.723 1341.029 425.114 C 1341.411 428.897 1340.533 434.172 1338.907 437.610 C 1336.062 443.627 1328.865 449.536 1323.819 453.877 C 1313.875 462.430 1298.732 471.486 1287.296 477.908 C 1269.803 487.730 1245.415 498.989 1226.656 506.100 C 1206.732 513.652 1178.799 519.622 1158.569 526.313 C 1135.658 533.890 1105.671 545.607 1083.036 553.973 C 1058.792 562.934 1026.466 574.883 1002.314 584.090 C 984.655 590.822 961.414 600.608 943.601 606.923 C 929.066 612.076 909.602 618.820 894.674 622.689 C 875.693 627.607 850.113 634.366 830.524 635.192 C 817.099 635.759 798.602 635.355 785.945 630.843 M 1243.231 383.185 C 1243.231 383.185 1243.231 383.185 1243.231 383.185 Z" clip-path="url(#b108c201-e251-45a8-81a0-80fe18c9a2eb)"/>
<path fill="none" stroke="#000000" stroke-width="6" stroke-opacity="0.000000" stroke-linecap="round" stroke-linejoin="round" d="M 748.433 605.836 C 748.433 605.836 748.433 605.836 748.433 605.836 C 759.687 613.338 773.205 626.301 785.945 630.843 C 798.602 635.355 817.099 635.759 830.524 635.192 C 850.113 634.366 875.693 627.607 894.674 622.689 C 909.602 618.820 929.066 612.076 943.601 606.923 C 961.414 600.608 984.655 590.822 1002.314 584.090 C 1026.466 574.883 1058.792 562.934 1083.036 553.973 C 1105.671 545.607 1135.658 533.890 1158.569 526.313 C 1178.799 519.622 1206.732 513.652 1226.656 506.100 C 1245.415 498.989 1269.803 487.730 1287.296 477.908 C 1298.732 471.486 1313.875 462.430 1323.819 453.877 C 1328.865 449.536 1336.062 443.627 1338.907 437.610 C 1340.533 434.172 1341.411 428.897 1341.029 425.114 C 1340.587 420.723 1338.309 414.929 1335.607 411.440 C 1332.158 406.987 1325.316 403.122 1320.282 400.595 C 1309.723 395.294 1294.083 391.888 1282.560 389.278 C 1270.916 386.642 1255.030 385.013 1243.231 383.185 C 1243.231 383.185 1243.231 383.185 1243.231 383.185 C 1175.522 416.709 1084.293 459.551 1017.536 494.933 C 985.148 512.099 944.580 540.074 910.983 554.733 C 864.131 575.176 748.450 605.831 748.433 605.836 " clip-path="url(#b108c201-e251-45a8-81a0-80fe18c9a2eb)"/>
</g>
<g id="Layer_5">
<path fill="#f0c984" fill-rule="evenodd" stroke="#000000" stroke-width="6" stroke-opacity="0.000000" stroke-linecap="round" stroke-linejoin="round" d="M 877.522 576.247 C 877.522 576.247 877.522 576.247 877.522 576.247 C 900.394 569.780 931.188 562.131 953.762 554.690 C 977.468 546.875 1007.991 533.406 1031.579 525.245 C 1066.434 513.186 1113.821 499.902 1148.949 488.663 C 1164.910 483.556 1186.722 478.088 1202.043 471.296 C 1218.348 464.068 1240.880 454.227 1253.647 441.772 C 1258.760 436.785 1265.235 428.894 1266.797 421.924 C 1267.614 418.275 1267.067 412.941 1265.556 409.519 C 1263.407 404.655 1257.828 399.563 1253.399 396.618 C 1247.416 392.640 1237.618 390.963 1230.854 388.539 C 1230.854 388.539 1230.854 388.539 1230.854 388.539 C 1168.863 415.355 1083.440 445.449 1024.218 477.924 C 977.764 503.397 877.537 576.237 877.522 576.247 C 877.522 576.247 877.522 576.247 877.522 576.247 Z" clip-path="url(#b108c201-e251-45a8-81a0-80fe18c9a2eb)"/>
</g>
</g>
<g id="Layer_4">
<g id="Layer_5">
<clipPath id="3edb2f47-5cf8-42a5-b60a-4eb32d370379">
<path fill="#b55717" fill-rule="evenodd" stroke="none" d="M 1050.846 134.025 C 1062.713 135.798 1078.783 138.294 1089.826 142.990 C 1100.482 147.521 1113.046 156.920 1122.179 164.039 C 1126.031 167.042 1130.192 172.252 1134.262 174.954 C 1142.988 180.744 1156.018 186.646 1166.226 188.986 C 1180.478 192.253 1200.330 189.974 1214.951 190.156 C 1232.932 190.379 1256.969 188.732 1274.894 190.179 C 1287.241 191.175 1304.553 191.128 1315.688 196.553 C 1323.419 200.319 1332.406 208.433 1337.042 215.675 C 1345.057 228.198 1349.212 248.641 1350.109 263.482 C 1350.995 278.139 1348.964 298.489 1343.010 311.912 C 1339.074 320.785 1330.004 330.622 1322.978 337.319 C 1304.320 355.101 1273.607 371.714 1251.644 385.201 C 1208.765 411.532 1149.221 442.616 1104.825 466.301 C 1063.611 488.288 1007.454 515.314 966.405 537.608 C 947.127 548.078 920.803 561.156 902.818 573.718 C 893.746 580.054 883.948 591.639 874.401 597.235 C 860.599 605.324 840.181 613.059 824.428 615.852 C 804.454 619.394 776.468 619.903 756.816 614.873 C 732.349 608.609 704.476 587.718 682.835 574.698 C 659.397 560.596 629.971 538.921 606.895 524.234 C 591.669 514.542 571.458 501.408 555.565 492.855 C 547.060 488.278 534.868 483.828 526.505 478.996 C 521.738 476.241 514.367 473.288 511.304 468.713 C 506.163 461.036 506.905 447.536 506.386 438.312 C 505.594 424.228 506.032 405.143 509.069 391.368 C 510.163 386.404 512.181 379.765 514.865 375.448 C 521.734 364.403 535.808 353.335 546.089 345.367 C 565.848 330.055 595.873 314.952 617.674 302.721 C 639.834 290.288 670.021 274.878 692.597 263.218 C 711.431 253.491 737.127 241.632 755.641 231.307 C 769.286 223.697 787.165 212.955 800.134 204.242 C 807.604 199.222 816.692 191.263 824.339 186.514 C 836.372 179.041 853.596 171.123 866.387 165.038 C 880.560 158.295 899.293 148.664 914.256 143.928 C 929.433 139.125 950.530 135.780 966.287 133.522 C 975.864 132.150 988.765 131.441 998.398 130.549 C 998.398 130.549 998.398 130.549 998.398 130.549 C 998.579 130.539 1035.250 131.695 1050.846 134.025 Z"/>
</clipPath>
<path fill="#b55717" fill-rule="evenodd" stroke="#000000" stroke-width="6" stroke-opacity="0.000000" stroke-linecap="round" stroke-linejoin="round" d="M 1050.846 134.025 C 1062.713 135.798 1078.783 138.294 1089.826 142.990 C 1100.482 147.521 1113.046 156.920 1122.179 164.039 C 1126.031 167.042 1130.192 172.252 1134.262 174.954 C 1142.988 180.744 1156.018 186.646 1166.226 188.986 C 1180.478 192.253 1200.330 189.974 1214.951 190.156 C 1232.932 190.379 1256.969 188.732 1274.894 190.179 C 1287.241 191.175 1304.553 191.128 1315.688 196.553 C 1323.419 200.319 1332.406 208.433 1337.042 215.675 C 1345.057 228.198 1349.212 248.641 1350.109 263.482 C 1350.995 278.139 1348.964 298.489 1343.010 311.912 C 1339.074 320.785 1330.004 330.622 1322.978 337.319 C 1304.320 355.101 1273.607 371.714 1251.644 385.201 C 1208.765 411.532 1149.221 442.616 1104.825 466.301 C 1063.611 488.288 1007.454 515.314 966.405 537.608 C 947.127 548.078 920.803 561.156 902.818 573.718 C 893.746 580.054 883.948 591.639 874.401 597.235 C 860.599 605.324 840.181 613.059 824.428 615.852 C 804.454 619.394 776.468 619.903 756.816 614.873 C 732.349 608.609 704.476 587.718 682.835 574.698 C 659.397 560.596 629.971 538.921 606.895 524.234 C 591.669 514.542 571.458 501.408 555.565 492.855 C 547.060 488.278 534.868 483.828 526.505 478.996 C 521.738 476.241 514.367 473.288 511.304 468.713 C 506.163 461.036 506.905 447.536 506.386 438.312 C 505.594 424.228 506.032 405.143 509.069 391.368 C 510.163 386.404 512.181 379.765 514.865 375.448 C 521.734 364.403 535.808 353.335 546.089 345.367 C 565.848 330.055 595.873 314.952 617.674 302.721 C 639.834 290.288 670.021 274.878 692.597 263.218 C 711.431 253.491 737.127 241.632 755.641 231.307 C 769.286 223.697 787.165 212.955 800.134 204.242 C 807.604 199.222 816.692 191.263 824.339 186.514 C 836.372 179.041 853.596 171.123 866.387 165.038 C 880.560 158.295 899.293 148.664 914.256 143.928 C 929.433 139.125 950.530 135.780 966.287 133.522 C 975.864 132.150 988.765 131.441 998.398 130.549 C 998.398 130.549 998.398 130.549 998.398 130.549 C 998.579 130.539 1035.250 131.695 1050.846 134.025 Z"/>
</g>
<g id="Layer_2">
<path fill="#eb8924" fill-rule="evenodd" stroke="#000000" stroke-width="6" stroke-opacity="0.000000" stroke-linecap="round" stroke-linejoin="round" d="M 1335.865 211.252 C 1337.272 215.025 1338.562 220.388 1338.498 224.415 C 1338.407 230.203 1336.325 237.918 1333.818 243.136 C 1327.204 256.899 1312.433 271.832 1301.348 282.334 C 1291.105 292.040 1275.426 302.697 1263.613 310.416 C 1248.398 320.357 1226.929 331.712 1210.878 340.236 C 1193.363 349.537 1169.525 361.000 1151.683 369.654 C 1137.431 376.566 1118.129 385.160 1103.968 392.255 C 1079.837 404.347 1048.220 421.561 1024.545 434.522 C 1000.469 447.701 969.023 466.461 944.818 479.401 C 926.015 489.454 901.096 503.299 881.460 511.608 C 863.387 519.256 838.689 528.315 819.608 532.897 C 805.734 536.228 786.819 540.051 772.553 539.804 C 761.909 539.619 747.420 537.835 737.585 533.760 C 724.733 528.436 711.490 514.447 700.028 506.563 C 686.147 497.016 667.287 484.798 652.973 475.913 C 641.866 469.019 627.020 459.847 615.480 453.704 C 601.264 446.136 581.710 437.198 566.948 430.761 C 556.223 426.085 540.811 422.204 530.769 416.201 C 524.630 412.531 516.243 407.126 512.238 401.201 C 508.510 395.686 504.843 386.633 505.620 380.022 C 507.176 366.786 521.065 352.538 530.769 343.403 C 550.099 325.205 584.533 312.617 607.979 300.164 C 639.601 283.370 683.405 264.124 714.680 246.691 C 744.154 230.261 781.235 204.586 810.456 187.710 C 833.163 174.596 862.839 155.511 887.293 146.045 C 910.069 137.229 942.097 129.684 966.299 126.409 C 988.581 123.394 1018.851 122.096 1041.220 124.370 C 1059.634 126.242 1084.652 130.170 1101.361 138.131 C 1116.022 145.117 1129.414 164.486 1144.174 171.260 C 1163.754 180.246 1193.307 182.304 1214.715 184.716 C 1237.488 187.281 1268.541 183.122 1291.058 187.383 C 1303.177 189.676 1340.713 194.163 1330.063 200.384 C 1329.976 200.435 1329.777 200.472 1329.729 200.384 C 1329.640 200.218 1334.557 207.744 1335.865 211.252 Z" clip-path="url(#3edb2f47-5cf8-42a5-b60a-4eb32d370379)"/>
</g>
<g id="Layer_3">
<path fill="#d9a156" fill-rule="evenodd" stroke="none" d="M 551.627 382.365 C 551.543 384.922 553.396 388.067 554.155 390.511 C 554.156 390.509 558.703 378.515 562.019 374.219 C 572.928 360.092 594.170 347.599 609.209 337.985 C 637.501 319.899 679.535 303.385 708.924 287.144 C 743.895 267.818 787.267 236.210 823.199 218.737 C 861.212 200.252 912.641 171.175 954.823 168.469 C 990.177 166.200 1035.553 186.284 1069.910 194.925 C 1094.838 201.195 1127.138 213.803 1152.588 217.414 C 1178.585 221.102 1214.123 214.977 1240.102 218.793 C 1251.689 220.495 1268.585 221.571 1277.855 228.728 C 1284.248 233.664 1287.592 244.863 1291.765 251.778 C 1292.845 249.324 1295.023 246.257 1295.367 243.598 C 1296.156 237.499 1294.666 228.575 1291.133 223.541 C 1286.331 216.698 1274.969 212.217 1267.063 209.501 C 1254.271 205.106 1235.777 205.072 1222.268 204.374 C 1209.248 203.702 1191.842 205.217 1178.810 204.820 C 1168.226 204.498 1154.051 204.064 1143.598 202.369 C 1137.607 201.397 1129.548 199.874 1123.958 197.507 C 1117.028 194.573 1108.778 188.608 1102.776 184.069 C 1097.448 180.041 1091.633 173.075 1086.148 169.264 C 1079.748 164.816 1070.436 159.941 1063.143 157.191 C 1055.514 154.314 1044.787 152.017 1036.722 150.814 C 1025.217 149.097 1009.628 148.417 998.001 148.764 C 984.162 149.177 965.800 151.716 952.158 154.081 C 936.702 156.760 916.208 161.283 901.236 165.963 C 888.329 169.997 871.389 176.424 859.285 182.452 C 850.266 186.943 838.840 194.111 830.560 199.852 C 824.286 204.203 816.822 211.228 810.527 215.549 C 791.890 228.342 765.139 242.440 745.309 253.294 C 729.919 261.718 708.814 271.852 693.385 280.206 C 678.612 288.206 659.321 299.605 644.628 307.751 C 633.124 314.128 617.176 321.590 606.119 328.715 C 596.103 335.170 583.319 344.714 574.378 352.591 C 568.611 357.672 560.562 364.385 556.402 370.849 C 554.378 373.994 551.748 378.627 551.627 382.365 M 1291.765 251.778 C 1291.765 251.778 1291.765 251.778 1291.765 251.778 Z" clip-path="url(#3edb2f47-5cf8-42a5-b60a-4eb32d370379)"/>
<path fill="none" stroke="#000000" stroke-width="6" stroke-opacity="0.000000" stroke-linecap="round" stroke-linejoin="round" d="M 554.155 390.511 C 554.155 390.511 554.155 390.511 554.155 390.511 C 553.396 388.067 551.543 384.922 551.627 382.365 C 551.748 378.627 554.378 373.994 556.402 370.849 C 560.562 364.385 568.611 357.672 574.378 352.591 C 583.319 344.714 596.103 335.170 606.119 328.715 C 617.176 321.590 633.124 314.128 644.628 307.751 C 659.321 299.605 678.612 288.206 693.385 280.206 C 708.814 271.852 729.919 261.718 745.309 253.294 C 765.139 242.440 791.890 228.342 810.527 215.549 C 816.822 211.228 824.286 204.203 830.560 199.852 C 838.840 194.111 850.266 186.943 859.285 182.452 C 871.389 176.424 888.329 169.997 901.236 165.963 C 916.208 161.283 936.702 156.760 952.158 154.081 C 965.800 151.716 984.162 149.177 998.001 148.764 C 1009.628 148.417 1025.217 149.097 1036.722 150.814 C 1044.787 152.017 1055.514 154.314 1063.143 157.191 C 1070.436 159.941 1079.748 164.816 1086.148 169.264 C 1091.633 173.075 1097.448 180.041 1102.776 184.069 C 1108.778 188.608 1117.028 194.573 1123.958 197.507 C 1129.548 199.874 1137.607 201.397 1143.598 202.369 C 1154.051 204.064 1168.226 204.498 1178.810 204.820 C 1191.842 205.217 1209.248 203.702 1222.268 204.374 C 1235.777 205.072 1254.271 205.106 1267.063 209.501 C 1274.969 212.217 1286.331 216.698 1291.133 223.541 C 1294.666 228.575 1296.156 237.499 1295.367 243.598 C 1295.023 246.257 1292.845 249.324 1291.765 251.778 C 1291.765 251.778 1291.765 251.778 1291.765 251.778 C 1287.592 244.863 1284.248 233.664 1277.855 228.728 C 1268.585 221.571 1251.689 220.495 1240.102 218.793 C 1214.123 214.977 1178.585 221.102 1152.588 217.414 C 1127.138 213.803 1094.838 201.195 1069.910 194.925 C 1035.553 186.284 990.177 166.200 954.823 168.469 C 912.641 171.175 861.212 200.252 823.199 218.737 C 787.267 236.210 743.895 267.818 708.924 287.144 C 679.535 303.385 637.501 319.899 609.209 337.985 C 594.170 347.599 572.928 360.092 562.019 374.219 C 558.703 378.515 554.156 390.509 554.155 390.511 " clip-path="url(#3edb2f47-5cf8-42a5-b60a-4eb32d370379)"/>
</g>
<g id="Layer_4">
<path fill="#e9bb65" fill-rule="evenodd" stroke="#000000" stroke-width="6" stroke-opacity="0.000000" stroke-linecap="round" stroke-linejoin="round" d="M 1292.312 237.555 C 1293.478 241.928 1293.260 248.313 1291.920 252.637 C 1289.547 260.298 1282.003 268.609 1276.642 274.575 C 1266.629 285.718 1250.668 298.087 1238.414 306.707 C 1224.047 316.812 1203.294 327.879 1187.727 336.014 C 1167.948 346.350 1140.417 357.773 1120.323 367.479 C 1097.151 378.673 1066.553 394.206 1043.599 405.841 C 1022.412 416.580 994.173 430.922 973.172 442.021 C 952.266 453.071 925.300 469.564 903.917 479.660 C 885.108 488.541 859.603 499.775 839.680 505.756 C 828.481 509.119 813.189 512.780 801.540 513.786 C 789.232 514.848 772.188 515.939 760.388 512.280 C 747.584 508.309 733.871 495.678 722.749 488.191 C 711.683 480.742 697.739 469.616 686.447 462.514 C 674.293 454.871 657.496 445.602 644.594 439.301 C 631.510 432.912 613.374 425.896 599.927 420.310 C 589.831 416.115 575.331 412.551 566.164 406.593 C 562.093 403.947 557.012 399.652 554.206 395.690 C 552.732 393.609 550.781 390.501 550.689 387.953 C 550.539 383.840 553.585 378.649 555.964 375.291 C 566.612 360.264 588.893 347.553 604.213 337.333 C 626.669 322.352 659.301 306.797 683.009 293.889 C 703.501 282.732 731.240 268.612 751.507 257.050 C 766.501 248.495 786.347 236.802 800.802 227.365 C 813.921 218.801 829.919 205.110 843.487 197.276 C 856.908 189.527 875.776 180.798 890.370 175.584 C 912.785 167.575 943.753 159.513 967.343 156.340 C 983.414 154.179 1005.222 153.200 1021.369 154.689 C 1033.651 155.823 1050.129 158.640 1061.597 163.182 C 1070.732 166.800 1081.774 174.190 1089.711 179.981 C 1096.257 184.758 1103.054 193.664 1110.042 197.767 C 1119.776 203.484 1134.552 207.831 1145.635 209.974 C 1154.125 211.616 1165.766 211.427 1174.410 211.670 C 1188.786 212.075 1207.985 210.666 1222.349 211.388 C 1234.497 211.999 1250.842 212.792 1262.673 215.618 C 1268.009 216.893 1275.220 218.919 1279.875 221.822 C 1282.313 223.342 1284.810 226.362 1286.925 228.308 C 1286.925 228.308 1286.925 228.308 1286.925 228.308 C 1286.896 228.203 1291.486 234.452 1292.312 237.555 Z" clip-path="url(#3edb2f47-5cf8-42a5-b60a-4eb32d370379)"/>
<path fill="#f0c984" fill-rule="evenodd" stroke="#000000" stroke-width="6" stroke-opacity="0.000000" stroke-linecap="round" stroke-linejoin="round" d="M 1100.619 214.025 C 1112.760 215.991 1129.306 214.895 1141.589 215.533 C 1151.778 216.063 1165.413 216.417 1175.522 217.796 C 1183.375 218.867 1194.081 220.056 1201.410 223.074 C 1205.608 224.803 1211.619 227.403 1214.229 231.117 C 1218.250 236.836 1220.102 247.289 1218.340 254.054 C 1214.692 268.061 1196.642 280.253 1185.202 289.119 C 1170.034 300.874 1146.104 310.972 1128.943 319.560 C 1112.662 327.708 1090.356 337.328 1073.841 344.992 C 1043.970 358.855 1004.083 377.218 974.378 391.434 C 947.497 404.298 912.822 424.015 885.179 435.148 C 867.192 442.391 843.103 454.136 823.743 455.232 C 810.244 455.997 791.831 452.370 779.439 446.962 C 765.633 440.937 752.293 424.405 739.270 416.835 C 727.400 409.936 709.871 404.106 697.328 398.523 C 689.247 394.926 678.657 389.704 670.469 386.357 C 662.157 382.959 650.074 380.668 642.360 376.073 C 637.597 373.236 630.451 369.187 628.305 364.075 C 626.911 360.755 627.374 355.445 628.648 352.077 C 632.405 342.146 645.067 333.379 653.329 326.710 C 668.480 314.480 691.957 302.778 708.862 293.116 C 731.874 279.964 763.843 264.736 786.699 251.315 C 803.396 241.511 824.810 227.055 841.148 216.666 C 853.025 209.113 868.048 197.574 880.747 191.504 C 898.260 183.134 923.095 174.667 942.209 171.292 C 961.351 167.911 987.676 166.862 1006.970 169.229 C 1015.306 170.252 1026.294 173.078 1034.074 176.242 C 1041.186 179.134 1050.217 184.235 1056.324 188.889 C 1060.552 192.112 1064.692 198.148 1068.971 201.302 C 1072.388 203.821 1077.513 206.353 1081.385 208.094 C 1083.764 209.165 1087.101 210.192 1089.550 211.091 C 1089.550 211.091 1089.550 211.091 1089.550 211.091 C 1089.553 211.066 1097.228 213.476 1100.619 214.025 Z" clip-path="url(#3edb2f47-5cf8-42a5-b60a-4eb32d370379)"/>
</g>
</g>
</g>
</svg>
