<?xml version='1.0' encoding='utf-8'?>
<svg xmlns="http://www.w3.org/2000/svg" width="500mm" height="500mm" version="1.1" viewBox="0 0 500 500"><g transform="translate(-4236.1 -653.38)"><rect x="4236.1" y="653.38" width="500" height="500" ry="0" fill="none" style="paint-order:markers stroke fill"/><g transform="matrix(3.3262 0 0 3.3262 -690.49 -612.2)" stroke-width=".30064"><path d="m1508.6 414.58c-0.3451-1.2044 0.5199-2.8909 1.6809-3.3617 6.9422-2.8156 14.407-5.1842 20.463-6.3581 1.1197-0.21707 2.7985 0.10779 3.2156 1.1693 2.9611 7.5356 9.1149 19.95 10.889 30.183 0.6698 3.8632-17.445 11.756-22.026 9.8837-6.6897-2.7349-11.561-22.229-14.223-31.516z" fill="#502d16" stop-color="#000000" style="font-variation-settings:normal;paint-order:stroke markers fill"/><path d="m1530.2 410.87c-1.1731 0.0277-2.3974 0.76839-3.342 1.479-0.2525 0.18998-0.5124 0.46677-0.5364 0.78186-0.1808 2.317 1.5188 5.4952 2.0893 7.0626 0.074 0.20376 0.4155-0.24779 0.4605-0.45992 0.098-0.45827-0.3764-0.86101-0.5034-1.3121-0.2322-0.82559-1.101-4.7385-0.6687-5.4183 0.6792-1.0681 3.4263-1.1082 3.5559-1.7043 0.029-0.13465-0.1233-0.28524-0.2553-0.32504-0.2612-0.0787-0.5292-0.11027-0.7999-0.10387zm-11.235 4.0488c-1.3006-7e-3 -2.5919 0.98557-3.5424 1.8991-0.2278 0.21896-0.4528 0.52456-0.4388 0.84026 0.099 2.3219 2.1685 5.2729 2.9234 6.7603 0.098 0.19337 0.383-0.29561 0.402-0.51159 0.042-0.4667-0.4775-0.8103-0.6578-1.2428-0.3299-0.79166-1.6631-4.5715-1.3157-5.2984 0.5458-1.142 3.2684-1.5119 3.3254-2.1192 0.013-0.13719-0.1567-0.26888-0.2925-0.29248-0.1344-0.0234-0.2691-0.0344-0.4036-0.0351zm15.81 8.6222c-1.1731 0.0277-2.3974 0.76891-3.3419 1.4795-0.2525 0.18998-0.5124 0.46626-0.5364 0.78135-0.1808 2.317 1.5182 5.4952 2.0887 7.0626 0.074 0.20376 0.416-0.24727 0.461-0.4594 0.098-0.45827-0.3769-0.86153-0.5039-1.3126-0.2322-0.8256-1.1009-4.7385-0.6686-5.4183 0.6792-1.0681 3.4262-1.1077 3.5558-1.7038 0.029-0.13465-0.1228-0.28576-0.2548-0.32556-0.2611-0.0787-0.5292-0.11027-0.7999-0.10387zm-10.213 3.2034c-1.1731 0.0277-2.3979 0.76839-3.3425 1.479-0.2525 0.18998-0.5124 0.46677-0.5364 0.78186-0.1808 2.317 1.5188 5.4952 2.0893 7.0626 0.074 0.20376 0.4154-0.24779 0.4604-0.45992 0.098-0.45827-0.3763-0.861-0.5033-1.3121-0.2322-0.8256-1.101-4.7385-0.6687-5.4183 0.6792-1.0681 3.4263-1.1082 3.5559-1.7043 0.029-0.13465-0.1233-0.28524-0.2553-0.32504-0.2612-0.0787-0.5287-0.11027-0.7994-0.10387z" fill="#28170b" stop-color="#000000" style="font-variation-settings:normal;paint-order:stroke markers fill"/><path d="m1609.4 463.34c-12.308-11.86-79.97-13.298-106.25 4.3408 0 0 11.104 16.487 19.64 20.661 18.497 9.0434 42.472 14.033 61.468 6.0896 12.296-5.1416 25.138-31.091 25.138-31.091z" fill="#b3b3b3" stop-color="#000000" style="font-variation-settings:normal;paint-order:stroke markers fill"/><path d="m1609.4 463.34c-12.722 5.3613-26.004 8.5518-39.37 10.007l-3.1078-6.1826s-7.6481-1.757-16.743-3.1006c-9.095-1.3436-21.497 2.4805-21.497 2.4805l-0.1065 6.1676c-8.7027-1.1412-17.225-2.8564-25.422-5.0307 0.9019 20.276 1.2938 26.037 7.9582 42.271 28.384 6.9418 59.838 9.2209 87.333-1.9637 8.0395-18.715 9.5077-24.961 10.955-44.648z" fill="#f9f9f9" stop-color="#000000" style="font-variation-settings:normal;paint-order:stroke markers fill"/><path d="m1609.4 463.34c-0.7147 0.30119-1.4373 0.57078-2.1554 0.85834-1.3234 15.359-3.1331 21.948-10.202 38.403-26.581 10.813-56.989 8.6096-84.43 1.8986-5.9005-14.373-6.7155-20.382-7.4807-36.328-0.6575-0.16745-1.3257-0.31861-1.9792-0.49196 0.9019 20.276 1.2938 26.037 7.9582 42.271 28.384 6.9418 59.838 9.2209 87.333-1.9637 8.0395-18.715 9.5077-24.961 10.955-44.648zm-79.866 2.9678c-0.2433 0.0706-0.8521 0.23616-0.8521 0.23616l-0.032 1.8278c0.2831 0.0384 0.5623 0.0884 0.8459 0.12558zm-13.171 6.8326s-1.4705 12.913 0.585 18.855c1.8794 5.4334 10.231 13.885 10.231 13.885s-5.9526-9.7041-7.7468-15.055c-1.9022-5.6729-3.0696-17.686-3.0696-17.686zm80.098 0s-1.1674 12.013-3.0696 17.686c-1.7942 5.3508-7.7463 15.055-7.7463 15.055s8.352-8.452 10.231-13.885c2.0555-5.9426 0.5845-18.855 0.5845-18.855zm-48.322 2.7771s-0.9031 13.844 0.2925 20.609c0.7722 4.3699 3.8001 11.255 4.3847 12.57 0 0-1.3657-9.6468-2.0459-14.47-0.8794-6.2359-2.6313-18.709-2.6313-18.709zm-15.084 2.3389s-1.7399 12.434 0.2924 18.124c1.6098 4.5072 8.9158 11.255 8.9158 11.255s-4.409-8.1781-5.8467-12.57c-1.7777-5.4303-3.3615-16.809-3.3615-16.809zm46.713 0s-1.5839 11.379-3.3616 16.809c-1.4377 4.3917-5.8466 12.57-5.8466 12.57s7.3064-6.7474 8.9162-11.255c2.0323-5.6901 0.292-18.124 0.292-18.124zm-15.084 2.6308s-1.0626 11.394-2.3383 16.955c-0.8819 3.8444-3.0694 9.9392-3.6541 11.255 0 0 4.9592-6.6216 5.9924-10.524 1.5089-5.6989 0-17.686 0-17.686z" fill="#b3b3b3" stop-color="#000000" style="font-variation-settings:normal;paint-order:stroke markers fill"/><path d="m1554 412.95c-1.3967 0.0332-2.7878 0.1439-4.1646 0.34571-5.659 0.82948-11.005 3.3504-16.078 5.9929-3.0443 1.5859-6.2598 3.2266-8.4775 5.8467-1.6335 1.9298-2.9083 4.3598-3.2158 6.8694-0.1691 1.3799 0.4716 2.7429 0.8041 4.0928 0.062 0.25121 0.089 0.53459 0.1116 0.82321-0.9419 0.65869-1.8696 1.3362-2.7719 2.0371-3.0399 2.3614-6.91 4.4599-8.2683 8.0615-0.634 1.6811-0.3837 3.7641 0.4134 5.3744 0.7577 1.5307 2.6003 2.2192 3.8241 3.4106 0.079 0.077 0.1489 0.16781 0.2248 0.2496 0.3053-0.1511 0.6146-0.31435 0.9121-0.45631 5.4701-2.6105 11.87-2.466 17.777-3.824 6.6368-1.5258 13.15-3.6031 19.844-4.8576 6.6041-1.2377 13.27-2.9545 19.968-3.0577 0.9569-0.0147 1.9146 3e-3 2.8727 0.0605 3.4781 0.20771 6.876 1.3343 10.129 2.5838 2.1434 0.8234 4.3023 1.7728 6.0978 3.2039 0.7808 0.62233 1.8671 1.2683 2.5275 2.0541 0.592-0.22859 1.0921-0.73871 1.5033-1.2273 1.0119-1.2024 1.8506-2.6808 2.067-4.2375 0.1879-1.352-0.06-2.8376-0.7235-4.0308-1.1492-2.0682-3.2202-3.5739-5.2709-4.7542-4.3358-2.4954-9.353-3.5001-14.24-4.7196 0.6088-0.26018 1.1225-0.64245 1.4686-1.2247 1.4733-2.4785-0.7353-5.8367-2.0464-8.4046-1.0766-2.1086-2.688-4.0177-4.6043-5.4079-2.3874-1.732-5.3117-2.6957-8.1851-3.3616-4.0668-0.94238-8.308-1.542-12.498-1.4423zm34.853 38.195c-0.8804-6e-3 -1.7557 0.01-2.6025 9e-3 -5.828-9e-3 -11.556 1.5945-17.26 2.7905-6.0599 1.2706-11.972 3.1666-17.983 4.6509-6.4253 1.5866-13.038 2.4869-19.327 4.5475-5.2796 1.7298-10.877 3.2118-15.338 6.5236-0.7164 0.53189-1.5684 1.1746-1.7157 2.0546-0.1278 0.76358 0.8578 1.3968 0.8268 2.1704-0.061 1.5244-1.6282 2.6459-1.9637 4.1341-0.3637 1.6132-0.5102 3.388 0 4.9609 0.5252 1.619 1.3654 3.6504 2.9973 4.1341 0.9201 0.27274 2.0685-0.29983 2.6871-1.0335 0.9058-1.0744 0.5596-2.7544 0.8268-4.1341 0.2133-1.1012 0.1263-2.3003 0.6202-3.3073 0.3654-0.74492 0.9034-1.506 1.6536-1.8604 0.8105-0.38284 1.8309 0.16169 2.6872-0.10335 1.0501-0.32502 1.8605-1.1711 2.7905-1.757 1.585-0.99861 2.9119-2.6571 4.7542-2.9972 0.8637-0.15945 1.8953-0.0285 2.5839 0.51676 1.0394 0.823 0.7789 2.621 1.6536 3.6174 0.4288 0.48847 1.0099 1.1234 1.6537 1.0335 1.4253-0.1991 1.9112-2.1524 2.8938-3.2039 0.9814-1.0503 1.7188-2.4436 2.9973-3.1006 1.6727-0.85962 3.7169-1.0763 5.581-0.82683 2.7217 0.36421 5.4483 1.5339 7.5448 3.3073 2.6409 2.2339 3.7313 5.8268 5.6844 8.6816 1.004 1.4676 1.4887 3.5901 3.1006 4.3408 2.3808 1.1089 5.6767 0.84759 7.8548-0.62011 1.9165-1.2915 2.1331-4.1024 3.1006-6.2012 0.8143-1.7665 0.9711-3.9297 2.2737-5.3744 1.2906-1.4315 3.1369-2.7935 5.0643-2.7905 1.0641 2e-3 1.8046 1.1501 2.7906 1.5503 2.447 0.9931 5.0342 2.4433 7.6481 2.0671 1.2398-0.17845 2.3625-1.0358 3.2039-1.9637 0.9005-0.99303 1.5002-2.3017 1.757-3.6174 0.1985-1.0166-0.3922-2.0815-0.2067-3.1006 0.1491-0.8191 0.9178-1.4493 1.0335-2.2738 0.2275-1.6212-0.1767-3.3145-0.7234-4.8576-0.8149-2.3001-1.7075-4.9256-3.7207-6.3045-2.0958-1.4355-4.7819-1.6452-7.4228-1.6624z" fill="#784421" stop-color="#000000" style="font-variation-settings:normal;paint-order:stroke markers fill"/><path d="m1575.6 418.5c-16.785 1.7437-33.484 1.1756-49.772 6.0425-0.1842 0.19257-0.373 0.38046-0.5457 0.58446-1.2873 1.5209-2.3433 3.3539-2.8872 5.2901 27.142-7.4156 47.477-1.9338 59.334-1.5642-0.3127-1.9219-1.5649-3.985-2.4402-5.6994-0.8976-1.7581-2.1811-3.3578-3.6891-4.6535zm-7.5433 15.907c-1.0566-0.0256-2.1129-0.0231-3.1646 1e-3 -6.3442 0.14557-12.623 1.4347-18.855 2.6308-5.3208 1.0212-10.758 1.8532-15.786 3.8737-3.7064 1.4896-7.4801 3.2428-10.378 5.9924-1.9752 1.8744-5.9538 4.7643-6.1691 7.0161 0.6117 0.48126 1.2977 0.90697 1.9131 1.3911 0.9109-0.79465 1.8559-2.6624 2.9409-3.2184 6.9862-3.5801 15.024-4.5922 22.655-6.4311 8.4996-2.048 16.988-4.7968 25.725-5.1154 6.329-0.2308 12.748 0.66058 18.855 2.3384 3.9038 1.0725 9.6495 3.7596 13.557 5.6808 0.3707-0.72272 0.6418-1.4904 0.7514-2.2789 0.075-0.54179 0.061-1.1036 0-1.6609-6.2406-2.9666-16.189-7.4426-22.638-9.0491-3.0625-0.76289-6.2353-1.0936-9.4052-1.1705zm6.8482 9.4428c-6.6983 0.10322-13.364 1.82-19.968 3.0577-6.6934 1.2545-13.207 3.3318-19.844 4.8576-5.907 1.3581-12.307 1.2135-17.777 3.824-2.4764 1.1818-5.3606 2.6314-6.4079 5.1676-0.8465 2.0501-0.3905 4.6966 0.7235 6.6146 0.8209 1.4134 2.4956 2.1244 3.9506 2.9011 0.249-0.22009 0.5102-0.42784 0.7623-0.61495 4.4608-3.3118 10.058-4.7938 15.338-6.5236 6.2893-2.0606 12.902-2.961 19.327-4.5475 6.0112-1.4843 11.924-3.3802 17.983-4.6509 5.704-1.196 11.432-2.7998 17.26-2.7905 3.3869 5e-3 7.231-0.26029 10.025 1.6536 0.29 0.19869 0.5512 0.42915 0.7978 0.67489 0.01-0.053 0.023-0.10358 0.029-0.15813 0.1605-1.58-1.8587-2.6275-3.1006-3.6174-1.7955-1.4312-3.9544-2.3805-6.0978-3.2039-3.2526-1.2495-6.6505-2.3761-10.129-2.5838-0.9581-0.0572-1.9158-0.0752-2.8727-0.0605z" fill="#f55" stop-color="#000000" style="font-variation-settings:normal;paint-order:stroke markers fill"/><path d="m1574 419.16c-2.0084-0.29935-5.581 1.0849-5.9944 1.0852 0 0 1.728 0.22639 3.591 0.0517 0.8267-0.0775 2.12 0.78636 2.5838 1.0077 0.9204 0.4392 0.9098 1.5552 1.5761 1.7312 2.7392 0.72355 0.5563-2.1028 0.052-2.9456-0.348-0.58183-1.1382-0.83024-1.8087-0.93018zm-29.533 3.0747c0.1339-0.49981-5.4094-0.21225-7.8807 0.23255-3.0469 0.5484-6.1606 1.0729-8.9917 2.3254-0.5461 0.24163-1.7122 0.42416-1.4986 0.98185 0.4488 1.1716 3.359-0.62014 3.7207-0.56844s3.3605-1.414 7.183-2.0154c3.3577-0.52831 7.2274-0.061 7.4673-0.95602zm20.541 12.687c-6.5698-0.31539-13.086 1.4925-19.534 2.7905-3.1415 0.63241-6.2209 1.5471-9.3017 2.4288-2.3938 0.68506-4.8926 1.1326-7.1314 2.2221-1.6369 0.79659-5.3221 1.4785-4.4958 3.1006 0.5885 1.1553 2.4559-0.83403 3.669-1.2919 2.1547-0.8133 4.2189-1.8681 6.4079-2.5838 3.1926-1.0438 6.4723-1.8258 9.7668-2.4805 4.1312-0.82097 8.3329-1.236 12.506-1.8087 2.6502-0.36371 5.2906-0.83476 7.9582-1.0335 1.7525-0.13058 5.0796 1.6435 5.271-0.10335 0.1911-1.7443-3.3633-1.1561-5.116-1.2402zm7.7484 9.8159c-2.5121-0.0105-5.0176 0.39728-7.2316 1.3462-1.5227 0.6526-3.227 0.10555-4.5992 0.62012-0.5512 0.2067-1.1025 0.41341-1.6537 0.62011-6.963 2.611 15.273-0.49894 15.968-0.56844 2.0653-0.20655 6.7248 1.5952 8.4749-0.15503 0.072-0.0724-4.919-1.0618-5.2193-1.1369-1.8275-0.45687-3.7854-0.71791-5.7392-0.72605zm-23.129 4.1362c-0.8026 0.0272-3.9443 0.9554-4.36 1.1891-5.7411 3.2271-18.862 3.261-18.862 4.4958v0.36173c0 2.5204 7.6189 0.25657 10.018-0.18118 2.1323-0.38919 13.612-4.2719 13.392-5.8133-0.01-0.0403-0.073-0.0561-0.1876-0.0522zm-26.028 5.7263c0-2.461-19.411 10.795-8.7003 10.396 0.2695-0.0101 0.5116-0.17053 0.7674-0.25579 0.6413-0.21375-0.7158-1.6382-0.9865-2.4117-0.5624-1.607 4.0286-4.6062 5.0426-5.1521 0.5931-0.31935 1.0478-1.0988 1.6805-1.3519 0.1379-0.0551 2.8538-0.8369 2.558-1.1328-0.061-0.0614-0.1853-0.0912-0.3617-0.0915z" fill="#faa" style="paint-order:markers fill stroke"/><path d="m1544.1 415.39c-1.592 0.15642-2.7613 0.90195-4.0307 1.8087-0.1964 0.14028-1.8618 1.6101-1.8087 1.6278 1.4551 0.48504 7.8512-2.1945 9.1726-2.8164zm24.232 0.49713-2.6308 0.94981c4.555 1.1388 10.898 1.1809 2.6308-0.94981zm-34.361 4.7656c-0.3199 5e-3 -1.5584 0.49024-4.1072 1.8686l-0.7235 0.36173c3.0517-0.71804 5.4009-2.2386 4.8307-2.2304zm22.89 8.584c-5.2488 9e-3 -11.154 1.3638-14.216 2.1802l-1.0232 1.3152c5.1181-1.706 11.194-0.73635 16.589-1.096 1.8937-0.12623 3.9077-0.25586 5.7733 0.0734 0.5278 0.0931 1.9871 0.37897 1.6081 0-1.8558-1.8559-5.14-2.4792-8.7312-2.4727zm-33.57 2.326c-0.016-9e-3 -0.033 3e-3 -0.05 0.0367-1.1583 2.3166 0.9567 3.5418 1.3519 5.518 0 0.0233-1.3592 0.83264-1.4981 0.91364-2.174 1.2682-3.6928 3.4049-5.9924 4.4943l3.1424-0.91363c0.9876-0.98766 2.2902-0.99071 3.435-1.7539 1.5022-1.0014 2.0562-2.7555 2.9962-4.1656 1.5391-2.3086 8.3299-2.3747 10.378-2.8866 0.1423-0.0365-0.2927-0.0513-0.4387-0.0367-0.9994 0.1-2.0368 0.15681-3.0329 0.21911-2.8031 0.17518-5.4701-0.74643-7.783 1.3886-2.0427 1.8856-2.2631-2.6854-2.5079-2.8138zm71.866 7.6243-0.2868 0.93172c0.3274-0.51115 3.9913 2.7425 3.8008 2.298-0.8013-1.8696-1.6632-2.5766-3.514-3.2298zm-0.2868 0.93172c-0.013 0.0197-0.021 0.0445-0.023 0.076zm-27.119 0.75396c-0.2674 5e-3 -0.5299 0.0336-0.7839 0.0971-0.5811 0.14526-18.461 2.261-17.208 3.514 0.3843 0.38428 20.915-2.524 22.376-3.359l-0.8785 0.0517c-1.0929 0.0895-2.3466-0.32641-3.5052-0.30386zm-52.461 4.2829-1.2656 0.56845c-0.392 0.21561-0.2055 0.0768-0.5167 0.28422-1.94 1.2934-0.8685 5.581-0.078 5.581 0.3077 0 0.1342-2.3277 0.026-2.6097-0.5919-1.539 1.2776-2.5511 1.8345-3.8241zm78.342 1.3436-0.8785 0.72347c0.7729 0.38643 2.2976 0.63496 2.9197 1.3953 0.2809 0.34335 0.5853 1.0953 0.956 1.3177 0.4861 0.29168 1.3611-0.69863 1.1111-1.2402-0.5772-1.2507-3.0193-1.69-4.1083-2.1962zm-55.319 0.69402c-0.5451 4e-3 -4.9247 0.7273-5.5351 1.0325-3.1125 1.5563-7.1323 1.6144-10.341 3.0696l1.096 0.18242c1.8347-0.10792 14.835-3.0103 14.835-4.2752 0-6e-3 -0.019-0.01-0.055-9e-3zm-17.931 4.763c-0.319-4e-3 -3.5531 2.1128-3.5151 3.1729l0.4651-0.18087c0.8769-0.94438 1.8315-1.8182 2.8164-2.6872 0.2402-0.21199 0.2998-0.30404 0.2336-0.30489zm65.931 0.46406c-0.6223 0.0101-1.2194 0.0682-1.7756 0.17673l-2.6871 0.25838c-1.8556 0.61854-3.8336 1.3612-5.6328 2.1187-0.8114 0.34163-3.154 1.3436-2.2737 1.3436 6.3321 0 16.306-1.9122 21.549 2.3771 1.2835 1.0502 1.8317 2.5552 2.8939 3.6174 0.8823 0.88238 0.078-2.5737-0.4134-3.7207-1.6936-3.9517-7.3036-6.2419-11.66-6.1712zm-16.095 4.2101c-3.3423-0.0774-24.82 4.0211-30.936 6.4306l-4.6038 2.0464c-4.1818 1.7219 5.3729 0.1807 6.7231-0.14625 6.7398-1.632 13.26-5.0066 21.34-5.627 0.7844-0.0602 8.1649-2.3994 7.893-2.6308-0.052-0.044-0.1937-0.0677-0.4165-0.0729zm17.711 10.46c-1.6714-0.0247-3.4151 0.78066-5.3553 2.8701l0.9819-0.31006c1.4264-1.7114 2.5598-0.4665 3.824 0.51677 2.3372 1.8178 5.9079 3.4294 8.9917 2.4805 0.075-0.023 1.0419-0.45674 0.8785-0.62012-0.4575-0.45744-1.527-0.46738-2.067-0.93018-2.5224-2.1621-4.811-3.9709-7.2538-4.007zm-63.008 0.47026c-0.1403 0.0182-0.5477 0.26823-0.7415 0.33279-1.1666 0.38885-2.312 0.83568-3.4882 1.1886-0.9864 0.29591-4.7536 1.8381-4.47 3.5398 0.089 0.53205 0.7211 0.66463 0.8785 1.1369 0.144 0.43178-0.1328 0.98321-0.4393 0.95601l0.7494 0.43925c2.0723-1.4803 0.7627-1.0803 1.3435-2.5321 0.2533-0.63341 1.3774-1.4549 1.8604-1.9379 0.9641-0.96406 3.8006-1.9684 4.3408-3.0489 0.03-0.0609 0.013-0.0805-0.034-0.0744zm20.884 0.58033c-0.5183-4e-3 -1.0008 0.0438-1.1575 0.14831-2.04 1.36-4.8752 1.3558-6.2487 3.6907l-0.8403 1.8634c-0.1683 4.3905 4.892-2.9132 5.8462-3.5812 1.0321-0.72244 3.0751-0.80918 3.9465-1.6805 0.2808-0.28079-0.6822-0.43369-1.5462-0.4408zm11.085 1.6645 0.6202 1.4986c1.3699 1.488 3.277 2.7246 4.2891 4.4958 1.3506 2.3635 4.6063 12.294 8.5783 9.4051 0.2732-0.19864 1.853-0.75323 1.912-0.93018 0.2208-0.66257-4.7027-3.3027-5.4777-4.2891-2.6219-3.3369-5.4649-9.2252-9.9219-10.18zm-29.711 2.0655c-0.07-1e-3 -0.1526 9e-3 -0.248 0.0331-1.3881 0.34703-2.064 2.0348-3.6541 2.3756l0.2558 0.65732c1.4672 1.8858 5.0743-3.0407 3.6463-3.066zm49.994 2.1466c-0.1245 1e-3 -0.4082 0.29841-0.9043 1.0072-1.3364 1.9092-1.55 4.125-2.5838 6.0462l0.155 0.72347c0.8371-0.90689 3.933-7.7821 3.3331-7.7768zm-61.699 5.7604c-1.1987-0.0435-0.9336 5.6029 1.0428 6.0849l0.4749-0.69453c0.4561-0.5574-0.021-0.84942-0.5111-1.9001-0.3753-0.80449 0.3353-1.9769-0.073-2.6308-0.3726-0.59627-0.6845-0.85034-0.9332-0.85938z" fill="#a05a2c" style="paint-order:markers fill stroke"/><path d="m1550 423.92c-7.8317 0.0988-16.628 0.99998-26.3 3.5192-0.5401 0.94364-0.9843 1.9437-1.2749 2.9781 27.142-7.4156 47.477-1.9338 59.334-1.5642-0.144-0.88479-0.4973-1.7981-0.9111-2.6949-7.369-0.36596-17.757-2.4033-30.848-2.2381zm19.346 13.947c-0.7932-6e-3 -1.586 6e-3 -2.3771 0.0346-8.737 0.31861-17.225 3.0674-25.725 5.1154-7.6317 1.8389-15.669 2.851-22.655 6.4311l-4.854 4.4731c0.2345 0.18448 2.0031 1.5021 2.2513 1.6766 0.7139-1.5326 1.0463-1.544 1.7838-2.8414 0.2653-0.28044 0.5376-0.51776 0.8201-0.66249 6.9862-3.5801 15.024-4.5922 22.655-6.4311 8.4996-2.048 16.988-4.7968 25.725-5.1154 3.9989-0.14583 8.0339 0.15874 12.003 0.82424 1.3568 0.15824 2.7006 0.44166 4.0266 0.80718 0.9475 0.21867 1.8909 0.45025 2.8251 0.70694 3.9038 1.0725 9.6495 3.7596 13.557 5.6808 0.3707-0.72272 0.6418-1.4904 0.7514-2.2789 0.075-0.54179 0.061-1.1036 0-1.6609-0.059-0.0279-0.1387-0.0633-0.198-0.0915-0.1383 0.4747-0.3225 0.93933-0.5514 1.3854-3.9073-1.9212-9.653-4.6083-13.557-5.6808-5.3432-1.468-10.926-2.334-16.478-2.373zm19.539 10.624c-0.8804-6e-3 -1.7557 0.01-2.6025 9e-3 -5.828-9e-3 -11.556 1.5945-17.26 2.7905-6.0599 1.2706-11.972 3.1666-17.983 4.6509-6.4253 1.5866-13.038 2.487-19.327 4.5475-5.2796 1.7298-10.877 3.2118-15.338 6.5236-0.2521 0.18711-0.5133 0.39486-0.7623 0.61495-1.455-0.77667-3.1297-1.4877-3.9506-2.9011-0.4973-0.85613-0.8527-1.8591-1.0305-2.8877-0.3554 1.8414 0.1036 3.9377 1.0305 5.5335 0.8209 1.4134 2.4956 2.1244 3.9506 2.9011 0.249-0.22009 0.5102-0.42784 0.7623-0.61495 4.4608-3.3118 10.058-4.7938 15.338-6.5236 6.2893-2.0606 12.902-2.961 19.327-4.5475 6.0112-1.4843 11.924-3.3802 17.983-4.6509 5.704-1.196 11.432-2.7998 17.26-2.7905 3.3869 5e-3 7.231-0.26029 10.025 1.6536 0.29 0.19869 0.5512 0.42915 0.7978 0.67489 0.01-0.053 0.023-0.10358 0.029-0.15813 0.1605-1.58-1.8587-2.6275-3.1006-3.6174-0.4155-0.33121-0.852-0.63428-1.3017-0.91829-1.2435-0.22364-2.5504-0.28093-3.8473-0.28939z" fill="#c83737" stop-color="#000000" style="font-variation-settings:normal;paint-order:stroke markers fill"/><path d="m1580.4 418.61c-0.9914-0.0539-2.1786 0.58534-2.5353 1.4671-2.4379 6.029-7.2462 16.967-7.8269 24.111 1.6152-0.18399 3.2326-0.30681 4.8519-0.33176 0.9569-0.0147 1.9146 3e-3 2.8727 0.0605 3.4781 0.20771 6.876 1.3343 10.129 2.5838 1.9011 0.73033 3.8135 1.5615 5.4746 2.7383 2.8993-7.3311 4.7894-16.031 6.4027-21.458 0.282-0.94853-0.6922-2.0678-1.5736-2.5177-4.7665-2.4328-11.135-4.8023-17.385-6.5867-0.1307-0.0373-0.2682-0.059-0.4098-0.0667z" fill="#502d16" stop-color="#000000" style="font-variation-settings:normal;paint-order:stroke markers fill"/><path d="m1595.1 428.27c-0.8167-0.60784-2.0493-0.75563-3.0747-0.77455-0.2741-5e-3 -0.5996 0.0453-0.7844 0.2479-1.3614 1.4874-1.8976 4.5681-2.345 5.9445-0.058 0.17884 0.4164 0.0526 0.5605-0.0684 0.3118-0.26093 0.2027-0.78972 0.3569-1.1659 0.2823-0.68845 1.7789-3.8276 2.4376-4.0613 1.0349-0.3673 2.9342 1.0731 3.3413 0.73481 0.092-0.0765 0.068-0.26087-9e-4 -0.35861-0.1365-0.19336-0.3028-0.35813-0.4913-0.49839zm-9.8432-3.2349c-0.8853-0.69969-2.2983-0.71108-3.4361-0.59442-0.2727 0.028-0.5898 0.11667-0.7489 0.33997-1.1728 1.6402-1.3347 4.7633-1.6133 6.1835-0.036 0.18455 0.4197 3e-3 0.5481-0.13495 0.2781-0.29661 0.1065-0.80907 0.2143-1.2011 0.1975-0.71746 1.3055-4.0138 1.9313-4.3251 0.9833-0.4891 3.042 0.71275 3.4054 0.32798 0.082-0.0868 0.037-0.26753-0.044-0.35622-0.079-0.0878-0.1655-0.1673-0.2571-0.23964zm6.2013 14.342c-0.8167-0.60785-2.0496-0.75528-3.0749-0.77415-0.2741-5e-3 -0.5993 0.045-0.7841 0.24755-1.3614 1.4874-1.898 4.5678-2.3454 5.9442-0.058 0.17883 0.4165 0.0532 0.5606-0.0678 0.3118-0.26092 0.2026-0.79034 0.3568-1.1665 0.2823-0.68846 1.7789-3.8275 2.4376-4.0613 1.035-0.3673 2.9339 1.0734 3.341 0.73511 0.092-0.0766 0.069-0.26096-3e-4 -0.3587-0.1364-0.1933-0.3028-0.35813-0.4913-0.49839zm-8.6931-3.267c-0.8167-0.60785-2.0497-0.7559-3.075-0.77482-0.2741-5e-3 -0.5996 0.0453-0.7844 0.2479-1.3614 1.4874-1.8976 4.5681-2.345 5.9445-0.058 0.17883 0.4163 0.0525 0.5604-0.0684 0.3119-0.26092 0.2028-0.78965 0.357-1.1659 0.2823-0.68847 1.7789-3.8276 2.4376-4.0613 1.0349-0.3673 2.9342 1.0731 3.3413 0.73481 0.092-0.0765 0.068-0.26087-9e-4 -0.35861-0.1365-0.19336-0.3025-0.35786-0.491-0.49812z" fill="#28170b" stop-color="#000000" style="font-variation-settings:normal;paint-order:stroke markers fill"/><path d="m1523 432.56c-0.2552-2.0541 3.8865-2.696 5.4446-3.0329 0.9354-0.20225 1.7235-0.39592 1.7174-0.38367-0.4443 0.88857-3.6594 1.3918-4.6589 1.9915-1.281 0.76859-1.392 2.694-1.6444 3.307" fill="#a05a2c" style="paint-order:markers fill stroke"/><ellipse cx="1556.4" cy="412.96" rx="13.082" ry="12.387" fill="#d40000" style="paint-order:markers fill stroke"/><path d="m1556.7 405c0.4525-4.0721-1.6433-8.0215-2.6493-9.2631 0 0 0.9674-0.32353 1.4251-0.18269 3.3804 1.535 2.8342 6.5975 2.7221 9.5371 1.2239 0.53196 2.6432-0.47316 3.8186-0.89525-1.2762 1.5769-2.9577 2.3861-4.9513 2.6127-0.9936 0.0943-2.0423 0.0364-2.9781-0.31059-0.5211-0.19323-1.3703-0.95007-1.3703-0.95007 2.6265 0.61159 3.3446 0.16506 3.9832-0.54811z" stop-color="#000000" style="font-variation-settings:normal;paint-order:stroke markers fill"/><ellipse transform="rotate(28.797)" cx="1553.7" cy="-388.78" rx="2.3589" ry="4.0826" fill="#ff8080" style="paint-order:markers fill stroke"/><path d="m1529.8 405.86c-2.7052 0.0286-5.325 1.2176-7.9349 1.9839-2.68 0.7868-7.8931 2.8133-7.8931 2.8133s5.0205-0.38774 7.4543-0.98651c1.927-0.47409 3.6252-1.774 5.5909-2.0464 1.4398-0.19951 3.1127-0.43668 4.3481 0.32918 1.3368 0.82875 1.5301 2.7534 2.4117 4.0561 1.1005 1.6262 3.5812 4.6767 3.5812 4.6767s-1.9847-7.5836-4.7506-10.048c-0.5953-0.53045-1.4691-0.72839-2.2655-0.76739-0.1812-9e-3 -0.3618-0.0122-0.5421-0.0103zm1.7849 6.3686s0.5531 1.659 0.6573 2.5213c0.098 0.81027 0.2367 1.6786-0.036 2.4479-0.1448 0.40885-0.5607 0.66413-0.804 1.0232-0.3001 0.44283-0.8046 1.3885-0.8046 1.3885s1.2454-0.52345 1.7905-0.91312c0.4415-0.3156 0.8869-0.66947 1.1695-1.1328 0.2187-0.35855 0.4116-0.7887 0.3653-1.2061-0.1745-1.5721-2.3383-4.1289-2.3383-4.1289zm-11.51 4.1289s0.4266 2.128 0.694 3.1791c0.172 0.67616 0.7207 1.3253 0.585 2.0097-0.1062 0.53552-0.7706 0.79499-1.0232 1.279-0.2586 0.49542-0.4755 1.6076-0.4755 1.6076s2.866-0.7651 3.2159-1.973c0.6306-2.1766-2.9962-6.1025-2.9962-6.1025z" fill="#a05a2c" stop-color="#000000" style="font-variation-settings:normal;paint-order:stroke markers fill"/><path d="m1585.6 421.33s5.5784 3.2727 8.3313 4.9692c0.8112 0.49991 2.0014 0.67477 2.4117 1.5348 1.1085 2.3236-0.414 5.1409-0.8769 7.6734-0.7501 4.1033-3.0691 12.132-3.0691 12.132s2.6263-6.5124 3.6535-9.8655c1.0212-3.333 3.3357-6.778 2.4852-10.159-0.2399-0.95351-1.1608-1.6394-1.9736-2.1926-3.2243-2.1948-10.524-4.0192-10.962-4.0922zm0.8408 5.1154s-0.7688 3.7657-2.0831 5.0064c-0.3754 0.35434-0.9559 0.40735-1.4614 0.5116-0.6816 0.14057-2.0831 0.14572-2.0831 0.14572s2.1928 1.2192 3.2887 0.91364c0.5644-0.15737 0.9339-0.76016 1.2062-1.279 0.8393-1.5992 1.1327-5.2984 1.1327-5.2984zm9.0728 3.9507s-1.2606 2.3992-2.1559 3.3982c-0.4164 0.46466-0.8689 0.97385-1.4614 1.1694-0.625 0.20632-1.9735-0.0729-1.9735-0.0729 0.5847 0.2558 1.8501 0.76314 2.8137 0.69401 0.485-0.0348 1.0239-0.18924 1.3524-0.54777 1.0933-1.193 1.4247-4.6411 1.4247-4.6411zm-12.179 7.706s-1.2606 2.3992-2.1559 3.3982c-0.4164 0.46466-0.8689 0.97385-1.4614 1.1694-0.625 0.20632-1.9735-0.0734-1.9735-0.0734 0.5847 0.2558 1.8501 0.76366 2.8137 0.69453 0.485-0.0348 1.0239-0.18976 1.3524-0.54829 1.0933-1.193 1.4247-4.6405 1.4247-4.6405zm9.1933 2.8029s-1.2607 2.3992-2.156 3.3982c-0.4164 0.46466-0.8694 0.97385-1.4619 1.1694-0.625 0.20632-1.973-0.0729-1.973-0.0729 0.5847 0.2558 1.8502 0.76315 2.8138 0.69402 0.485-0.0348 1.0233-0.18976 1.3518-0.54829 1.0933-1.193 1.4253-4.6405 1.4253-4.6405z" fill="#a05a2c" stop-color="#000000" style="font-variation-settings:normal;paint-order:stroke markers fill"/></g></g><style> .measure-arrow { } .measure-label { } .measure-line { }</style><style> .measure-arrow { } .measure-label { } .measure-line { }</style></svg>