<?xml version='1.0' encoding='utf-8'?>
<svg xmlns="http://www.w3.org/2000/svg" enable-background="new 0 0 39.1 26.3" version="1.1" viewBox="0 0 39.1 26.3">
<g clip-rule="evenodd" fill-rule="evenodd">
	<polygon points="5.7 14.85 19.65 10.35 33.9 14.2 21.05 19.35" fill="#CCC8AB"/>
	<path d="m33.4 14.35l-13.7-3.65-13.15 5-0.85-0.85 13.85-5.15 14.35 3.85c0.199 0.867 0.199 1.367 0 1.5-0.134 0.066-0.267-0.033-0.4-0.3l-0.1-0.4z" fill="#F5F5F5"/>
	<polygon points="5.7 14.85 22.2 18.7 34.2 13.55 30.4 22.2 22.05 26.05 9.4 23.15" fill="#DBDBDB"/>
	<polygon points="33.9 15.05 30.4 22.2 22.05 26.05 22.7 19.85" fill="#B2B2B2"/>
	<polygon points="5.9 16.2 5.7 14.85 23.05 18.55 34.2 13.55 33.7 15.2 22.7 19.85" fill="#F5F5F5"/>
	<path d="m25.4 16.95c-0.134 0-0.717 0.3-1.75 0.899l-1.45 0.851-8.15-2 7-3.1 7.351 0.1-3.001 3.25z" fill="#586436"/>
	<polygon points="9.85 16.75 19.4 19.15 15.75 23.7 10.5 22.95" fill="#E4E4E4"/>
	<path d="m33.05 15.85l-2.5 6-8.5 4.2c2.566-2.333 4.517-4.066 5.851-5.2 1.332-1.1 3.049-2.767 5.149-5z" fill="#949494"/>
	<path d="m12.4 7.95c2.267 1.5 3.983 2.55 5.15 3.15 0.934 0.467 2.351 1.583 4.25 3.35-3.167-0.334-5.25-0.784-6.25-1.35-0.3-0.2-0.917-0.883-1.85-2.05l-1.3-1.7v-1.4z" fill="#90A701"/>
	<path d="m10.05 11.35l1.35-0.65 1.6 0.7c1.133 0.5 1.9 0.767 2.3 0.8 0.7 0.1 2.367 0.767 5 2-2.333 0.434-4.133 0.517-5.4 0.25-1.233-0.233-2.85-1.267-4.85-3.1z" fill="#C7C902"/>
	<path d="m16.15 16.95c-2.5-0.334-3.95-0.7-4.35-1.101-0.133-0.133-1.05-0.449-2.75-0.949-0.833-0.233-1.667-0.467-2.5-0.7l2.35-1.35 4.25 1.5c0.933 0.334 1.933 1.2 3 2.6z" fill="#586436"/>
	<path d="m31.9 11.85c0.666 0.667 0.716 1.25 0.149 1.75-0.6 0.5-3.184 1.784-7.75 3.85l0.55-1.25c0.434-0.867 0.917-1.483 1.45-1.851 0.601-0.433 1.617-0.966 3.05-1.6 1.401-0.599 2.251-0.899 2.551-0.899z" fill="#586436"/>
	<path d="m19.55 12.6l1.45-0.85c1.1-0.567 1.983-0.867 2.65-0.9 1.1-0.1 2.433-0.1 4 0-1.233 1.066-2.483 1.65-3.75 1.75h-4.35z" fill="#586436"/>
	<path d="m30.4 10.6c-1.334 1.833-2.45 3.117-3.351 3.85-0.934 0.767-2.934 1.649-6 2.649 0.834-1 1.7-1.916 2.601-2.75 0.933-0.832 3.183-2.082 6.75-3.749z" fill="#90A701"/>
	<path d="m18.15 11.95c1.1-0.833 2.567-1.7 4.4-2.6 1.2-0.633 2.783-1.184 4.75-1.65l1 1c-2.666 1.1-4.5 1.816-5.5 2.15-0.633 0.2-1.434 0.55-2.399 1.05l-1.25 0.7-1.001-0.65z" fill="#C7C902"/>
	<path d="m19.55 12.6l0.65-0.8c0.566-0.6 1.217-1 1.95-1.2 1.166-0.333 2.5-0.8 4-1.4l1.149 1.15-2.25 0.75c-3.433 0.733-5.266 1.233-5.499 1.5z" fill="#90A701"/>
	<polygon points="20.15 10.45 18.4 11.85 15.05 9.6 16.55 8.45" fill="#586436"/>
	<path d="m27.65 11.95l-2.75 1.65c-0.834 0.5-1.95 0.867-3.351 1.1-0.8 0.133-2 0.467-3.6 1l-2.15 0.75-0.75-1c2.167-0.733 4.117-1.434 5.851-2.1 1.767-0.667 4.017-1.133 6.75-1.4z" fill="#C7C902"/>
	<polygon points="19.55 12.6 21.9 12.45 15.15 15.95 13.55 14.85" fill="#586436"/>
	<polygon points="22.9 14.45 21.65 15.85 13.15 15.7 15.65 14.6" fill="#90A701"/>
	<path d="m24.4 17.45l-1.75 1.25-4.75-1.6 0.4-1.5 0.851 0.45c0.666 0.3 1.333 0.483 2 0.55 1.099 0.067 2.182 0.35 3.249 0.85z" fill="#C7C902"/>
</g>
</svg>